<?xml version="1.0" encoding="UTF-8"?>
<svg id="ELEMENTS" xmlns="http://www.w3.org/2000/svg" viewBox="0 0 146.67 154.67">
  <defs>
    <style>
      .cls-1 {
        fill: #fff;
      }
    </style>
  </defs>
  <path class="cls-1" d="M76.78,45.7c-16.67,0-30.23,13.56-30.23,30.23,0,5.5,1.53,10.92,4.42,15.67l.78,1.29-3.02,11.27,11.34-3.04,1.28,.76c4.69,2.8,10.03,4.27,15.43,4.27,16.67,0,30.23-13.56,30.23-30.23s-13.56-30.23-30.23-30.23Zm17.76,41.65c-1.12,2.73-3.92,4.48-6.75,5.02-2.71,.51-4.94-.35-7.45-1.18-2.24-.74-4.39-1.81-6.4-3.04-4.01-2.46-7.47-5.74-10.26-9.52-.85-1.16-1.64-2.36-2.37-3.6-.96-1.64-1.82-3.37-2.27-5.22-.19-.77-.28-1.56-.29-2.36-.03-2.81,1.04-5.64,3.26-7.44,1.28-1.05,3.18-1.5,4.63-.69,1.57,.89,2.38,3.12,3.11,4.69,.57,1.23,1.21,2.84,.98,4.21-.23,1.38-1.32,2.54-2.19,3.56-.59,.69-.67,1.28-.19,2.02,2.87,4.79,6.86,8.26,12.07,10.34,.71,.28,1.26,.2,1.72-.37,.9-1.11,1.78-3.28,3.17-3.85,1.81-.74,3.8,.28,5.34,1.2,1.43,.85,3.82,1.9,4.2,3.67,.19,.85,.02,1.75-.31,2.56Z"/>
  <path class="cls-1" d="M73.84,12.51C37.99,12.51,8.94,41.56,8.94,77.4s29.05,64.89,64.89,64.89,64.89-29.05,64.89-64.89S109.67,12.51,73.84,12.51Zm2.95,100.7c-6.17,0-12.26-1.56-17.72-4.52l-20.29,5.44,5.41-20.19c-3.06-5.53-4.68-11.72-4.68-18.01,0-20.55,16.72-37.27,37.28-37.27s37.28,16.72,37.28,37.27-16.72,37.28-37.28,37.28Z"/>
</svg>