<?xml version="1.0" encoding="UTF-8"?>
<svg id="ELEMENTS" xmlns="http://www.w3.org/2000/svg" viewBox="0 0 151.11 154.67">
  <defs>
    <style>
      .cls-1 {
        fill: #fff;
      }
    </style>
  </defs>
  <path class="cls-1" d="M75.56,12.44C39.72,12.44,10.66,41.49,10.66,77.33s29.05,64.89,64.89,64.89,64.89-29.05,64.89-64.89S111.4,12.44,75.56,12.44Zm34.74,74c0,8.61-6.98,15.58-15.58,15.58H54.87c-8.61,0-15.58-6.98-15.58-15.58v-18.54c0-8.61,6.98-15.58,15.58-15.58h39.85c8.61,0,15.58,6.98,15.58,15.58v18.54Z"/>
  <path class="cls-1" d="M86.12,76.72l-17.1-9.31c-.7-.4-3.1,.11-3.1,.91v18.15c0,.8,2.38,1.3,3.08,.92l17.87-8.84c.73-.39-.03-1.43-.74-1.84Z"/>
</svg>